<?xml version="1.0" encoding="UTF-8" standalone="no"?>
<svg
   width="32.826"
   height="32.826"
   viewBox="0 0 32.825997 32.826"
   version="1.1"
   id="svg35"
   sodipodi:docname="etrackplus-logo.svg"
   inkscape:version="1.1 (c68e22c387, 2021-05-23)"
   xmlns:inkscape="http://www.inkscape.org/namespaces/inkscape"
   xmlns:sodipodi="http://sodipodi.sourceforge.net/DTD/sodipodi-0.dtd"
   xmlns="http://www.w3.org/2000/svg"
   xmlns:svg="http://www.w3.org/2000/svg">
  <sodipodi:namedview
     id="namedview37"
     pagecolor="#ffffff"
     bordercolor="#666666"
     borderopacity="1.0"
     inkscape:pageshadow="2"
     inkscape:pageopacity="0.0"
     inkscape:pagecheckerboard="0"
     showgrid="false"
     width="33.452px"
     inkscape:zoom="4.5819906"
     inkscape:cx="-6.6564955"
     inkscape:cy="4.4740379"
     inkscape:window-width="1366"
     inkscape:window-height="705"
     inkscape:window-x="-8"
     inkscape:window-y="-8"
     inkscape:window-maximized="1"
     inkscape:current-layer="etrackplus-logo-source-1" />
  <defs
     id="defs23">
    <clipPath
       id="clip-path">
      <path
         id="Path_250"
         data-name="Path 250"
         d="m 119.153,29.211 c 0,0 2.944,1.144 3.227,1.6 0,0 -6.4,-0.735 -9.894,3.486 0,0 -2.788,2.312 -3.156,7.421 a 17.045,17.045 0 0 0 1.12,5.189 13.689,13.689 0 0 0 0.933,1.91 l 0.376,0.3 c 0,0 -2.2,-13.387 11.351,-15.756 0,0 4.536,-0.83 7.982,1.5 l 0.269,0.054 c 0,0 -2.663,-4.49 -6.238,-5.243 a 10.137,10.137 0 0 0 -2.1,-0.458 z"
         transform="translate(-109.33,-29.21)"
         fill="none" />
    </clipPath>
    <linearGradient
       id="linear-gradient"
       x1="-0.428"
       y1="2.7739999"
       x2="-0.41800001"
       y2="2.7739999"
       gradientUnits="objectBoundingBox">
      <stop
         offset="0"
         stop-color="#35b55f"
         id="stop4" />
      <stop
         offset="1"
         stop-color="#6ac076"
         id="stop6" />
    </linearGradient>
    <clipPath
       id="clip-path-2">
      <path
         id="Path_251"
         data-name="Path 251"
         d="m 59.109,95.094 a 10.133,10.133 0 0 0 -0.068,2.145 l 0.706,3.8 c 0,0 0.592,-3.1 0.981,-3.462 0,0 0.444,6.426 5.231,9.093 0,0 2.782,2.319 7.871,1.75 a 17.025,17.025 0 0 0 4.9,-2.047 14.054,14.054 0 0 0 1.707,-1.264 l 0.223,-0.425 c 0,0 -12.766,4.6 -17.562,-8.29 0,0 -1.642,-4.308 0.025,-8.124 L 63.131,88 c 0,0 -3.93,3.433 -4.019,7.094"
         transform="translate(-59.013,-88)"
         fill="none" />
    </clipPath>
    <linearGradient
       id="linear-gradient-2"
       x1="-0.183"
       y1="1.8660001"
       x2="-0.17399999"
       y2="1.8660001"
       gradientUnits="objectBoundingBox">
      <stop
         offset="0"
         stop-color="#787777"
         id="stop11" />
      <stop
         offset="1"
         stop-color="#2e2d21"
         id="stop13" />
    </linearGradient>
    <clipPath
       id="clip-path-3">
      <path
         id="Path_252"
         data-name="Path 252"
         d="m 149.147,151.6 c 0,0 -4.457,1.183 -8.075,-0.874 l -0.272,-0.032 c 0,0 3.006,4.267 6.63,4.737 a 10.141,10.141 0 0 0 2.127,0.291 l 3.859,-0.3 c 0,0 -3.025,-0.915 -3.341,-1.338 0,0 6.437,0.229 9.591,-4.252 0,0 2.6,-2.524 2.562,-7.646 a 17,17 0 0 0 -1.528,-5.086 14.091,14.091 0 0 0 -1.079,-1.831 l -0.4,-0.265 c 0,0 3.239,13.177 -10.079,16.6"
         transform="translate(-140.8,-135)"
         fill="none" />
    </clipPath>
    <linearGradient
       id="linear-gradient-3"
       x1="-0.60100001"
       y1="2.073"
       x2="-0.59100002"
       y2="2.073"
       gradientUnits="objectBoundingBox">
      <stop
         offset="0"
         stop-color="#75d0f1"
         id="stop18" />
      <stop
         offset="1"
         stop-color="#257c9b"
         id="stop20" />
    </linearGradient>
  </defs>
  <g
     id="etrackplus-logo-source-1"
     transform="translate(-33.913,0.01)">
    <g
       id="Group_255"
       data-name="Group 255"
       transform="translate(39.671,-0.01)"
       clip-path="url(#clip-path)">
      <rect
         id="Rectangle_32"
         data-name="Rectangle 32"
         width="22.031"
         height="19.896999"
         transform="translate(0,0.001)"
         fill="url(#linear-gradient)"
         x="0"
         y="0" />
    </g>
    <g
       id="Group_256"
       data-name="Group 256"
       transform="translate(33.913,6.717)"
       clip-path="url(#clip-path-2)">
      <rect
         id="Rectangle_33"
         data-name="Rectangle 33"
         width="25.228001"
         height="24.886"
         transform="matrix(0.983,-0.182,0.182,0.983,-3.88,0.709)"
         fill="url(#linear-gradient-2)"
         x="0"
         y="0" />
    </g>
    <g
       id="Group_257"
       data-name="Group 257"
       transform="translate(43.272,12.095)"
       clip-path="url(#clip-path-3)">
      <rect
         id="Rectangle_34"
         data-name="Rectangle 34"
         width="21.667"
         height="20.719999"
         transform="translate(0,0.001)"
         fill="url(#linear-gradient-3)"
         x="0"
         y="0" />
    </g>
    <path
       id="Path_255"
       data-name="Path 255"
       d="m 20.1,-99.579 h -8.392 a 4.444,4.444 0 0 0 1.067,3.063 3.68,3.68 0 0 0 2.808,1.079 5.838,5.838 0 0 0 3.69,-1.323 v 1.787 a 6.9,6.9 0 0 1 -4.142,1.137 5.022,5.022 0 0 1 -3.957,-1.619 6.625,6.625 0 0 1 -1.439,-4.554 6.5,6.5 0 0 1 1.572,-4.519 5.041,5.041 0 0 1 3.9,-1.746 4.467,4.467 0 0 1 3.609,1.508 6.289,6.289 0 0 1 1.276,4.189 z m -1.949,-1.613 a 3.872,3.872 0 0 0 -0.795,-2.564 2.708,2.708 0 0 0 -2.176,-0.917 3.074,3.074 0 0 0 -2.286,0.963 4.37,4.37 0 0 0 -1.16,2.518 z"
       transform="translate(37.052,114.741)"
       fill="#444342" />
    <path
       id="Path_254"
       data-name="Path 254"
       d="m 63.684087,7.9248428 h 2.736805 v 1.179722 H 63.684087 V 12.205123 H 62.430749 V 9.1045648 h -2.736187 v -1.179722 h 2.736187 V 5.0606006 h 1.253338 z"
       fill="#454342"
       style="stroke-width:0.618627" />
  </g>
</svg>
